<svg width="264" height="179" viewBox="0 0 264 179" fill="none" xmlns="http://www.w3.org/2000/svg">
    <path d="M0 0H264V179H0V0Z" fill="#F2F2F2"/>
    <path d="M68.2549 116H66.9355V111.399H61.918V116H60.6055V106.047H61.918V110.326H66.9355V106.047H68.2549V116ZM71.7617 116H70.4902V108.604H71.7617V116ZM71.8848 107.517H70.7979L69.0342 105.507H70.5586L71.8848 107.517ZM75.043 108.604L75.084 109.533C75.6491 108.822 76.3874 108.467 77.2988 108.467C78.862 108.467 79.6504 109.349 79.6641 111.112V116H78.3994V111.105C78.3949 110.572 78.2718 110.178 78.0303 109.923C77.7933 109.668 77.4219 109.54 76.916 109.54C76.5059 109.54 76.1458 109.649 75.8359 109.868C75.526 110.087 75.2845 110.374 75.1113 110.729V116H73.8467V108.604H75.043ZM82.8359 109.499C83.3965 108.811 84.1257 108.467 85.0234 108.467C86.5866 108.467 87.375 109.349 87.3887 111.112V116H86.124V111.105C86.1195 110.572 85.9964 110.178 85.7549 109.923C85.5179 109.668 85.1465 109.54 84.6406 109.54C84.2305 109.54 83.8704 109.649 83.5605 109.868C83.2507 110.087 83.0091 110.374 82.8359 110.729V116H81.5713V105.5H82.8359V109.499ZM97.3213 116C97.2484 115.854 97.1891 115.594 97.1436 115.221C96.5557 115.831 95.8538 116.137 95.0381 116.137C94.3089 116.137 93.7096 115.932 93.2402 115.521C92.7754 115.107 92.543 114.583 92.543 113.949C92.543 113.179 92.8346 112.582 93.418 112.158C94.0059 111.73 94.8307 111.516 95.8926 111.516H97.123V110.935C97.123 110.493 96.9909 110.142 96.7266 109.882C96.4622 109.618 96.0726 109.485 95.5576 109.485C95.1064 109.485 94.7282 109.599 94.4229 109.827C94.1175 110.055 93.9648 110.331 93.9648 110.654H92.6934C92.6934 110.285 92.8232 109.93 93.083 109.588C93.3473 109.242 93.7028 108.968 94.1494 108.768C94.6006 108.567 95.0951 108.467 95.6328 108.467C96.485 108.467 97.1527 108.681 97.6357 109.109C98.1188 109.533 98.3695 110.119 98.3877 110.866V114.271C98.3877 114.95 98.4743 115.49 98.6475 115.891V116H97.3213ZM95.2227 115.036C95.6191 115.036 95.9951 114.934 96.3506 114.729C96.7061 114.523 96.9635 114.257 97.123 113.929V112.411H96.1318C94.5824 112.411 93.8076 112.865 93.8076 113.771C93.8076 114.168 93.9398 114.478 94.2041 114.701C94.4684 114.924 94.8079 115.036 95.2227 115.036ZM95.3457 107.407L95.3389 106.361C95.6807 106.339 95.9313 106.293 96.0908 106.225C96.2503 106.156 96.3301 106.033 96.3301 105.855C96.3301 105.678 96.2253 105.546 96.0156 105.459C95.8105 105.368 95.5371 105.322 95.1953 105.322L95.2432 104.598C95.9222 104.598 96.4372 104.716 96.7881 104.953C97.139 105.186 97.3145 105.495 97.3145 105.883C97.3145 106.161 97.2256 106.391 97.0479 106.573C96.8701 106.756 96.6058 106.872 96.2549 106.922L96.248 107.407H95.3457ZM101.566 108.604L101.607 109.533C102.173 108.822 102.911 108.467 103.822 108.467C105.385 108.467 106.174 109.349 106.188 111.112V116H104.923V111.105C104.918 110.572 104.795 110.178 104.554 109.923C104.317 109.668 103.945 109.54 103.439 109.54C103.029 109.54 102.669 109.649 102.359 109.868C102.049 110.087 101.808 110.374 101.635 110.729V116H100.37V108.604H101.566ZM109.359 109.499C109.92 108.811 110.649 108.467 111.547 108.467C113.11 108.467 113.898 109.349 113.912 111.112V116H112.647V111.105C112.643 110.572 112.52 110.178 112.278 109.923C112.041 109.668 111.67 109.54 111.164 109.54C110.754 109.54 110.394 109.649 110.084 109.868C109.774 110.087 109.533 110.374 109.359 110.729V116H108.095V105.5H109.359V109.499ZM122.245 115.104C122.696 115.104 123.09 114.968 123.428 114.694C123.765 114.421 123.952 114.079 123.988 113.669H125.185C125.162 114.093 125.016 114.496 124.747 114.879C124.478 115.262 124.118 115.567 123.667 115.795C123.22 116.023 122.746 116.137 122.245 116.137C121.238 116.137 120.436 115.802 119.839 115.132C119.246 114.457 118.95 113.537 118.95 112.37V112.158C118.95 111.438 119.082 110.798 119.347 110.237C119.611 109.677 119.989 109.242 120.481 108.932C120.978 108.622 121.564 108.467 122.238 108.467C123.068 108.467 123.756 108.715 124.303 109.212C124.854 109.709 125.148 110.354 125.185 111.146H123.988C123.952 110.668 123.77 110.276 123.441 109.971C123.118 109.661 122.717 109.506 122.238 109.506C121.596 109.506 121.097 109.738 120.741 110.203C120.39 110.663 120.215 111.331 120.215 112.206V112.445C120.215 113.298 120.39 113.954 120.741 114.414C121.092 114.874 121.593 115.104 122.245 115.104ZM127.871 109.499C128.432 108.811 129.161 108.467 130.059 108.467C131.622 108.467 132.41 109.349 132.424 111.112V116H131.159V111.105C131.155 110.572 131.032 110.178 130.79 109.923C130.553 109.668 130.182 109.54 129.676 109.54C129.266 109.54 128.906 109.649 128.596 109.868C128.286 110.087 128.044 110.374 127.871 110.729V116H126.606V105.5H127.871V109.499ZM142.213 108.016C142.213 108.836 142.044 109.415 141.707 109.752C141.374 110.085 140.843 110.26 140.114 110.278V116H138.911L138.884 115.269C138.392 115.847 137.669 116.137 136.717 116.137C135.928 116.137 135.327 115.909 134.912 115.453C134.502 114.993 134.295 114.314 134.29 113.416V108.604H135.555V113.382C135.555 114.503 136.01 115.063 136.922 115.063C137.888 115.063 138.531 114.703 138.85 113.983V108.604H140.114V109.499C140.424 109.49 140.657 109.447 140.812 109.369C140.966 109.287 141.076 109.164 141.14 109C141.208 108.836 141.242 108.508 141.242 108.016H142.213ZM147.552 116C147.479 115.854 147.42 115.594 147.374 115.221C146.786 115.831 146.084 116.137 145.269 116.137C144.539 116.137 143.94 115.932 143.471 115.521C143.006 115.107 142.773 114.583 142.773 113.949C142.773 113.179 143.065 112.582 143.648 112.158C144.236 111.73 145.061 111.516 146.123 111.516H147.354V110.935C147.354 110.493 147.221 110.142 146.957 109.882C146.693 109.618 146.303 109.485 145.788 109.485C145.337 109.485 144.959 109.599 144.653 109.827C144.348 110.055 144.195 110.331 144.195 110.654H142.924C142.924 110.285 143.054 109.93 143.313 109.588C143.578 109.242 143.933 108.968 144.38 108.768C144.831 108.567 145.326 108.467 145.863 108.467C146.715 108.467 147.383 108.681 147.866 109.109C148.349 109.533 148.6 110.119 148.618 110.866V114.271C148.618 114.95 148.705 115.49 148.878 115.891V116H147.552ZM145.453 115.036C145.85 115.036 146.226 114.934 146.581 114.729C146.937 114.523 147.194 114.257 147.354 113.929V112.411H146.362C144.813 112.411 144.038 112.865 144.038 113.771C144.038 114.168 144.17 114.478 144.435 114.701C144.699 114.924 145.038 115.036 145.453 115.036ZM155.789 106.812V108.604H157.17V109.581H155.789V114.168C155.789 114.464 155.851 114.688 155.974 114.838C156.097 114.984 156.306 115.057 156.603 115.057C156.748 115.057 156.949 115.029 157.204 114.975V116C156.871 116.091 156.548 116.137 156.233 116.137C155.668 116.137 155.242 115.966 154.955 115.624C154.668 115.282 154.524 114.797 154.524 114.168V109.581H153.178V108.604H154.524V106.812H155.789ZM163.22 116C163.147 115.854 163.088 115.594 163.042 115.221C162.454 115.831 161.752 116.137 160.937 116.137C160.207 116.137 159.608 115.932 159.139 115.521C158.674 115.107 158.441 114.583 158.441 113.949C158.441 113.179 158.733 112.582 159.316 112.158C159.904 111.73 160.729 111.516 161.791 111.516H163.021V110.935C163.021 110.493 162.889 110.142 162.625 109.882C162.361 109.618 161.971 109.485 161.456 109.485C161.005 109.485 160.627 109.599 160.321 109.827C160.016 110.055 159.863 110.331 159.863 110.654H158.592C158.592 110.285 158.722 109.93 158.981 109.588C159.246 109.242 159.601 108.968 160.048 108.768C160.499 108.567 160.993 108.467 161.531 108.467C162.383 108.467 163.051 108.681 163.534 109.109C164.017 109.533 164.268 110.119 164.286 110.866V114.271C164.286 114.95 164.373 115.49 164.546 115.891V116H163.22ZM161.121 115.036C161.518 115.036 161.894 114.934 162.249 114.729C162.604 114.523 162.862 114.257 163.021 113.929V112.411H162.03C160.481 112.411 159.706 112.865 159.706 113.771C159.706 114.168 159.838 114.478 160.103 114.701C160.367 114.924 160.706 115.036 161.121 115.036ZM161.244 107.407L161.237 106.361C161.579 106.339 161.83 106.293 161.989 106.225C162.149 106.156 162.229 106.033 162.229 105.855C162.229 105.678 162.124 105.546 161.914 105.459C161.709 105.368 161.436 105.322 161.094 105.322L161.142 104.598C161.821 104.598 162.336 104.716 162.687 104.953C163.037 105.186 163.213 105.495 163.213 105.883C163.213 106.161 163.124 106.391 162.946 106.573C162.769 106.756 162.504 106.872 162.153 106.922L162.146 107.407H161.244ZM167.643 116H166.378V108.604H167.643V116ZM166.275 106.642C166.275 106.437 166.337 106.263 166.46 106.122C166.588 105.981 166.774 105.91 167.021 105.91C167.267 105.91 167.453 105.981 167.581 106.122C167.709 106.263 167.772 106.437 167.772 106.642C167.772 106.847 167.709 107.018 167.581 107.154C167.453 107.291 167.267 107.359 167.021 107.359C166.774 107.359 166.588 107.291 166.46 107.154C166.337 107.018 166.275 106.847 166.275 106.642ZM180.364 107.571H179.079V116H177.917L177.855 115.207C177.35 115.827 176.646 116.137 175.743 116.137C174.886 116.137 174.187 115.786 173.645 115.084C173.107 114.382 172.838 113.466 172.838 112.336V112.24C172.838 111.105 173.107 110.194 173.645 109.506C174.182 108.813 174.886 108.467 175.757 108.467C176.623 108.467 177.309 108.763 177.814 109.355V107.571H176.01V106.539H177.814V105.5H179.079V106.539H180.364V107.571ZM174.103 112.384C174.103 113.222 174.276 113.879 174.622 114.353C174.968 114.826 175.447 115.063 176.058 115.063C176.86 115.063 177.445 114.703 177.814 113.983V110.586C177.436 109.889 176.855 109.54 176.071 109.54C175.451 109.54 174.968 109.779 174.622 110.258C174.276 110.736 174.103 111.445 174.103 112.384ZM189.408 108.016C189.408 108.836 189.24 109.415 188.902 109.752C188.57 110.085 188.039 110.26 187.31 110.278V116H186.106L186.079 115.269C185.587 115.847 184.865 116.137 183.912 116.137C183.124 116.137 182.522 115.909 182.107 115.453C181.697 114.993 181.49 114.314 181.485 113.416V108.604H182.75V113.382C182.75 114.503 183.206 115.063 184.117 115.063C185.083 115.063 185.726 114.703 186.045 113.983V108.604H187.31V109.499C187.619 109.49 187.852 109.447 188.007 109.369C188.162 109.287 188.271 109.164 188.335 109C188.403 108.836 188.438 108.508 188.438 108.016H189.408ZM189.846 112.233C189.846 111.509 189.985 110.859 190.263 110.285C190.545 109.706 190.942 109.26 191.452 108.945C191.967 108.626 192.55 108.467 193.202 108.467C194.146 108.467 194.927 108.781 195.547 109.41C195.87 109.374 196.105 109.242 196.251 109.014C196.397 108.786 196.47 108.38 196.47 107.797H197.495C197.495 109.123 197.023 109.902 196.08 110.135C196.413 110.764 196.579 111.463 196.579 112.233V112.384C196.579 113.104 196.438 113.753 196.155 114.332C195.873 114.911 195.476 115.357 194.966 115.672C194.455 115.982 193.872 116.137 193.216 116.137C192.204 116.137 191.388 115.788 190.769 115.091C190.153 114.389 189.846 113.466 189.846 112.322V112.233ZM191.11 112.384C191.11 113.204 191.299 113.863 191.678 114.359C192.061 114.856 192.573 115.104 193.216 115.104C193.849 115.104 194.355 114.856 194.733 114.359C195.116 113.858 195.308 113.186 195.308 112.343V112.233C195.308 111.409 195.114 110.748 194.727 110.251C194.344 109.754 193.836 109.506 193.202 109.506C192.573 109.506 192.067 109.754 191.685 110.251C191.302 110.748 191.11 111.459 191.11 112.384ZM192.416 117.736C192.416 117.531 192.478 117.358 192.601 117.217C192.728 117.076 192.915 117.005 193.161 117.005C193.407 117.005 193.594 117.076 193.722 117.217C193.849 117.358 193.913 117.531 193.913 117.736C193.913 117.941 193.849 118.112 193.722 118.249C193.594 118.386 193.407 118.454 193.161 118.454C192.915 118.454 192.728 118.386 192.601 118.249C192.478 118.112 192.416 117.941 192.416 117.736ZM201.146 115.104C201.597 115.104 201.991 114.968 202.328 114.694C202.665 114.421 202.852 114.079 202.889 113.669H204.085C204.062 114.093 203.916 114.496 203.647 114.879C203.379 115.262 203.019 115.567 202.567 115.795C202.121 116.023 201.647 116.137 201.146 116.137C200.138 116.137 199.336 115.802 198.739 115.132C198.147 114.457 197.851 113.537 197.851 112.37V112.158C197.851 111.438 197.983 110.798 198.247 110.237C198.511 109.677 198.89 109.242 199.382 108.932C199.879 108.622 200.464 108.467 201.139 108.467C201.968 108.467 202.656 108.715 203.203 109.212C203.755 109.709 204.049 110.354 204.085 111.146H202.889C202.852 110.668 202.67 110.276 202.342 109.971C202.018 109.661 201.617 109.506 201.139 109.506C200.496 109.506 199.997 109.738 199.642 110.203C199.291 110.663 199.115 111.331 199.115 112.206V112.445C199.115 113.298 199.291 113.954 199.642 114.414C199.993 114.874 200.494 115.104 201.146 115.104Z" fill="#CCCCCC"/>
    <path fill-rule="evenodd" clip-rule="evenodd" d="M140.774 77.6452C141.344 77.6452 141.806 78.1073 141.806 78.6774V82.0839C141.806 82.654 141.344 83.1161 140.774 83.1161C140.204 83.1161 139.742 82.654 139.742 82.0839V78.6774C139.742 78.1073 140.204 77.6452 140.774 77.6452Z" fill="#CCCCCC"/>
    <path fill-rule="evenodd" clip-rule="evenodd" d="M116 58.0323C116 57.4622 116.462 57 117.032 57H144.903C145.473 57 145.935 57.4622 145.935 58.0323V73C145.935 73.5701 145.473 74.0323 144.903 74.0323C144.333 74.0323 143.871 73.5701 143.871 73V59.0645H118.065V84.871H132C132.57 84.871 133.032 85.3331 133.032 85.9032C133.032 86.4733 132.57 86.9355 132 86.9355H117.032C116.462 86.9355 116 86.4733 116 85.9032V58.0323Z" fill="#CCCCCC"/>
    <path fill-rule="evenodd" clip-rule="evenodd" d="M140.774 76.6129C137.924 76.6129 135.613 78.9237 135.613 81.7742C135.613 84.6247 137.924 86.9355 140.774 86.9355C143.625 86.9355 145.935 84.6247 145.935 81.7742C145.935 78.9237 143.625 76.6129 140.774 76.6129ZM133.548 81.7742C133.548 77.7835 136.783 74.5484 140.774 74.5484C144.765 74.5484 148 77.7835 148 81.7742C148 85.7649 144.765 89 140.774 89C136.783 89 133.548 85.7649 133.548 81.7742Z" fill="#CCCCCC"/>
    <path fill-rule="evenodd" clip-rule="evenodd" d="M125.806 63.1935C124.951 63.1935 124.258 63.8868 124.258 64.7419C124.258 65.5971 124.951 66.2903 125.806 66.2903C126.662 66.2903 127.355 65.5971 127.355 64.7419C127.355 63.8868 126.662 63.1935 125.806 63.1935ZM122.194 64.7419C122.194 62.7466 123.811 61.129 125.806 61.129C127.802 61.129 129.419 62.7466 129.419 64.7419C129.419 66.7373 127.802 68.3548 125.806 68.3548C123.811 68.3548 122.194 66.7373 122.194 64.7419Z" fill="#CCCCCC"/>
    <path fill-rule="evenodd" clip-rule="evenodd" d="M140.472 66.0765C140.875 66.4797 140.875 67.1332 140.472 67.5364L131.182 76.8267C130.778 77.2298 130.125 77.2298 129.722 76.8267L125.806 72.9114L120.859 77.8589C120.456 78.2621 119.802 78.2621 119.399 77.8589C118.996 77.4558 118.996 76.8022 119.399 76.3991L125.077 70.7217C125.48 70.3186 126.133 70.3186 126.536 70.7217L130.452 74.6369L139.012 66.0765C139.415 65.6734 140.069 65.6734 140.472 66.0765Z" fill="#CCCCCC"/>
    <path d="M141.806 84.871C141.806 85.4411 141.344 85.9032 140.774 85.9032C140.204 85.9032 139.742 85.4411 139.742 84.871C139.742 84.3009 140.204 83.8387 140.774 83.8387C141.344 83.8387 141.806 84.3009 141.806 84.871Z" fill="#CCCCCC"/>
</svg>
